<svg width="1800" height="1197" viewBox="0 0 1800 1197" fill="none" xmlns="http://www.w3.org/2000/svg">
    <path opacity="0.2" d="M109.504 1142.2C41.5361 1058.98 -9.55847 915.983 -2.48876 807.941C0.935359 755.613 15.3654 706.32 43.4601 661.948C95.0146 580.525 185.562 533.806 243.622 457.407C269.374 423.519 288.126 385.452 305.856 347.035C342.853 266.87 380.969 186.309 448.801 126.886C577.306 14.3086 785.617 -8.08654 950.083 2.26437C1073.43 10.0281 1204.34 50.3203 1300.17 129.218C1334.59 157.55 1355.68 179.397 1384.91 212.718L1398.65 199.595L1446.56 199.561C1458.31 210.093 1472.38 227.119 1483.44 239.06L1483.63 335.774C1487.84 332.461 1493.39 328.449 1498.98 328.585C1507.24 332.642 1503.76 341.61 1503.74 349.259L1504.59 349.476C1522.37 354.164 1509.77 368.412 1502.4 376.545C1495.07 384.634 1485.46 390.659 1475.54 395.077C1473.9 395.801 1472.25 396.481 1470.58 397.113C1453.7 402.762 1443.62 401.353 1426.01 400.994C1418.93 405.198 1411.23 410.058 1408.94 418.582C1375.45 420.478 1336.04 419.069 1301.13 420.543L1283.05 421.237C1282.24 429.695 1278.45 464.091 1280.01 470.496L1281.26 471.932C1283.21 478.01 1270.65 678.407 1268.23 683.291C1268.07 683.615 1267.89 683.929 1267.72 684.248C1264.75 675.177 1269.28 612.533 1270.64 598.804C1250.11 572.015 1231.73 543.543 1212.49 515.847C1199.82 497.608 1183.01 465.731 1166.97 450.996C1159.87 469.517 1151.08 475.021 1139.69 489.371C1131.98 499.093 1128.69 524.808 1124.58 538.067C1118.15 558.85 1113.14 571.042 1100.58 589.014C1098.25 587.627 1094.88 584.601 1092.67 582.76C1070.51 563.53 1045.47 545.038 1024.2 525.382C1019.95 521.464 1017.69 519.55 1012.99 516.216C1009.62 519.753 1001.07 529.128 997.537 531.66L996.568 531.813C989.807 540.357 979.181 549.436 971.569 557.555C951.797 578.637 926.159 601.102 907.111 622.37L719.753 622.432L719.835 699.013L706.017 699.345C687.765 716.315 655.657 745.605 639.773 764.235L639.244 765.409C638.695 836.616 638.095 913.222 639.176 984.347C632.653 977.932 621.472 967.347 616.129 960.596C616.19 950.351 616.033 939.926 615.978 929.663C600.877 912.054 571.329 883.337 554.806 866.652L554.804 804.087C532.493 779.505 507.106 754.833 484.041 730.528C463.66 710.846 442.41 688.582 422.198 668.317C386.706 703.856 351.428 739.607 316.365 775.569C304.989 787.184 293.82 798.869 283.032 811.067C282.047 812.18 280.91 812.386 279.523 812.623C227.563 812.572 172.676 811.649 121.001 812.844C116.602 813.081 114.459 813.187 110.102 814.076C108.019 817.353 110.435 1116.41 109.504 1142.2Z" fill="#9FDBDA"/>
    <path d="M656.576 422.433C665.655 426.658 680.928 450.128 685.872 458.862C716.703 467.232 737.205 471.889 767.731 484.827C789.185 493.917 807.458 505.02 827.504 514.109C831.141 516.494 831.774 515.955 832.552 519.339C830.143 524.049 821.942 528.592 817.074 531.876C815.242 531.971 813.037 532.086 810.461 532.22C789.112 551.285 736.654 603.844 719.753 622.432L719.835 699.013L706.017 699.345C687.765 716.315 655.657 745.605 639.773 764.235L639.244 765.409C638.695 836.616 638.095 913.222 639.176 984.347C632.653 977.932 621.472 967.347 616.129 960.596C616.19 950.351 616.033 939.926 615.979 929.664C600.877 912.054 571.329 883.337 554.806 866.652L554.804 804.087C532.493 779.505 507.106 754.833 484.041 730.528C490.694 705.631 493.124 674.017 508.638 655.258C515.524 648.523 521.416 642.739 527.789 635.516C540.131 619.704 548.679 600.918 537.818 581.902C533.955 574.115 542.837 559.509 530.177 541.489L526.596 538.348C524.801 537.086 524.38 526.203 522.925 522.407C521.816 515.835 512.748 514.377 510.151 510.726C503.772 501.754 508.221 499.151 495.33 496.106C489.642 496.453 484.133 497.859 479.861 501.935L478.041 502.282C474.386 501.062 466.364 483.516 465.825 479.559C490.707 470.457 506.969 466.734 532.431 462.231C539.286 454.478 546.891 447.424 555.135 441.168C558.469 444.88 562.071 449.065 565.586 452.53C575.647 463.731 586.316 474.372 597.541 484.406C607.043 475.256 652.08 431.628 656.576 422.433Z" fill="#0C2645"/>
    <path d="M656.576 422.433C665.655 426.658 680.928 450.128 685.872 458.862C671.3 469.78 638.095 509.607 623.511 524.315L597.604 484.945L570.797 524.808L545.287 482.921C542.233 477.907 535.75 466.567 532.431 462.231C539.286 454.478 546.891 447.424 555.135 441.168C558.469 444.88 562.071 449.065 565.586 452.53C575.647 463.731 586.316 474.372 597.541 484.406C607.043 475.256 652.08 431.628 656.576 422.433Z" fill="#8DD2C3"/>
    <path d="M508.638 655.258C515.524 648.523 521.416 642.739 527.789 635.516C531.604 650.834 524.782 664.914 508.638 655.258Z" fill="#3C7F83"/>
    <path d="M1073.58 393.938C1078.07 395.217 1082.6 396.04 1086.21 398.832C1052.9 426.021 1037.23 448.861 1031.65 493.493C1029.69 509.154 1033.48 512.058 1024.2 525.382C1019.95 521.464 1017.69 519.55 1012.99 516.216C1009.62 519.753 1001.07 529.128 997.537 531.66L996.568 531.814C989.807 540.357 979.181 549.436 971.569 557.555C951.797 578.637 926.159 601.102 907.111 622.371L719.753 622.432C736.654 603.844 789.112 551.286 810.461 532.22C813.037 532.086 815.242 531.971 817.074 531.876C821.942 528.592 830.143 524.049 832.552 519.34C831.774 515.955 831.141 516.494 827.504 514.109C856.856 447.278 893.972 417.777 963.36 397.039C982.833 430.044 1046.52 439.923 1068.88 404.992C1070.75 402.091 1072.4 397.246 1073.58 393.938Z" fill="#FEFFFE"/>
    <path d="M937.54 531.234C942.875 532.503 987.891 531.686 996.568 531.814C989.807 540.357 979.181 549.436 971.569 557.555C951.797 578.637 926.159 601.102 907.111 622.371L719.753 622.432C736.654 603.844 789.112 551.286 810.461 532.221C813.037 532.086 815.242 531.971 817.074 531.877C817.096 550.753 816.66 571.724 817.236 590.424L882.495 590.386C882.761 575.633 883.698 545.74 881.941 531.956L882.793 532.003C900.158 530.596 919.611 532.831 937.54 531.234Z" fill="#69C0AE"/>
    <path d="M881.941 531.956L882.793 532.003C893.067 533.642 925.978 532.784 937.764 532.605C919.643 551.335 900.829 572.26 882.495 590.386C882.761 575.633 883.698 545.74 881.941 531.956Z" fill="#D7EDEA"/>
    <path d="M849.341 507.615L903.235 507.729C914.745 515.432 926.361 523.07 937.54 531.234C919.611 532.83 900.158 530.596 882.793 532.003L881.941 531.956C871.805 523.826 859.88 515.399 849.341 507.615Z" fill="#51AB99"/>
    <path d="M836.205 543.587L861.701 543.668L861.733 569.484L836.305 569.549L836.205 543.587Z" fill="#0C2645"/>
    <path d="M1446.56 199.561C1458.31 210.093 1472.38 227.119 1483.44 239.061L1483.63 335.774C1487.84 332.461 1493.39 328.449 1498.98 328.586C1507.24 332.642 1503.76 341.61 1503.75 349.259L1504.59 349.476C1522.37 354.164 1509.77 368.412 1502.4 376.546C1495.07 384.634 1485.46 390.659 1475.54 395.077C1473.9 395.801 1472.25 396.481 1470.58 397.113C1453.7 402.762 1443.62 401.353 1426.01 400.994C1418.93 405.198 1411.23 410.058 1408.94 418.582C1375.45 420.478 1336.04 419.069 1301.13 420.543C1304.09 404.163 1306.26 394.455 1313.83 379.017C1317.85 370.826 1329.42 361.568 1330.36 356.257C1335.35 345.594 1362.71 333.067 1373.95 333.452L1374.64 333.373C1375.23 322.883 1374.75 307.264 1374.75 296.467L1374.67 223.167L1375.98 221.602L1384.91 212.718L1398.65 199.595L1446.56 199.561Z" fill="#8DD2C3"/>
    <path d="M1423.87 328.661C1429.37 326.885 1433.44 324.731 1438.57 327.188C1444.44 333.484 1438.87 346.322 1435.94 353.145L1435.62 356.849C1441.34 355.43 1450.52 331.533 1464.98 326.289C1476.55 327.246 1473.35 340.93 1472.21 348.977C1476.13 344.945 1479.99 340.117 1483.63 335.774C1487.84 332.461 1493.39 328.449 1498.98 328.585C1507.24 332.642 1503.76 341.61 1503.75 349.259L1504.59 349.476C1522.37 354.164 1509.77 368.412 1502.4 376.546C1495.07 384.634 1485.46 390.659 1475.54 395.077C1473.9 395.801 1472.25 396.481 1470.58 397.113C1453.7 402.762 1443.62 401.353 1426.01 400.994C1418.93 405.198 1411.23 410.058 1408.94 418.582C1375.45 420.478 1336.04 419.069 1301.13 420.543C1304.09 404.162 1306.26 394.455 1313.83 379.017C1317.85 370.826 1329.42 361.568 1330.36 356.257C1335.35 345.594 1362.71 333.067 1373.95 333.452L1374.64 333.373C1374.66 336.823 1374.54 337.244 1375.71 340.41C1389.64 342.361 1397.67 345.85 1409.27 352.784C1414.13 343.72 1417.12 336.454 1423.87 328.661Z" fill="#FEB787"/>
    <path d="M1330.36 356.257C1335.35 345.594 1362.71 333.067 1373.95 333.453C1373.93 336.95 1374.55 338.244 1372.82 340.726C1362.18 342.908 1346.72 345.706 1338.6 352.52C1335.66 354.995 1333.42 357.445 1330.36 356.257Z" fill="#F89B64"/>
    <path d="M1435.62 356.849C1435.22 364.213 1424.38 376.576 1418.73 380.929L1418.33 379.779C1420.04 376.093 1432.33 356.188 1435.08 352.697L1435.94 353.145L1435.62 356.849Z" fill="#F89B64"/>
    <path d="M1471.4 343.265C1471.56 344.956 1471.89 348.868 1471.25 350.283C1465.33 363.426 1447.17 385.061 1435.2 391.34C1435.12 390.864 1435.03 388.541 1435.28 388.314C1450.16 375.01 1460.89 360.104 1471.4 343.265Z" fill="#F89B64"/>
    <path d="M1374.67 223.167C1391.03 223.057 1407.4 223.032 1423.75 223.088C1423.57 258.279 1423.6 293.471 1423.87 328.661C1417.12 336.453 1414.13 343.72 1409.27 352.784C1397.67 345.85 1389.64 342.361 1375.71 340.41C1374.54 337.244 1374.66 336.823 1374.64 333.373C1375.23 322.883 1374.75 307.264 1374.75 296.467L1374.67 223.167Z" fill="#FEFFFE"/>
    <path d="M1397.01 278.054C1398.13 277.146 1399.66 276.921 1401 277.47C1402.33 278.018 1403.27 279.25 1403.43 280.687C1403.6 282.125 1402.97 283.537 1401.79 284.374C1400.04 285.614 1397.62 285.242 1396.34 283.535C1395.04 281.827 1395.34 279.401 1397.01 278.054Z" fill="#0C2645"/>
    <path d="M1398.65 199.595L1446.56 199.561C1439.57 207.935 1432.16 214.689 1424.26 222.178C1411.08 222.113 1388.34 222.846 1375.98 221.602L1384.91 212.718L1398.65 199.595Z" fill="#69C0AE"/>
    <path d="M1449.88 278.135C1450.91 277.163 1452.39 276.827 1453.75 277.257C1455.1 277.686 1456.11 278.815 1456.4 280.206C1456.67 281.597 1456.18 283.032 1455.11 283.958C1453.5 285.345 1451.07 285.189 1449.65 283.606C1448.23 282.024 1448.33 279.593 1449.88 278.135Z" fill="#0C2645"/>
    <path d="M1450.02 249.376C1451.64 247.995 1454.07 248.182 1455.46 249.797C1456.84 251.41 1456.66 253.843 1455.06 255.236C1453.44 256.637 1451 256.457 1449.6 254.835C1448.21 253.212 1448.39 250.766 1450.02 249.376Z" fill="#0C2645"/>
    <path d="M562.363 262.598C571.65 265.137 593.978 269.738 599.003 277.491C605.095 286.893 600.113 306.735 612.233 311.718C620.215 310.734 630.941 284.079 648.031 307.29C656.643 326.694 657.256 346.968 643.644 364.254C645.169 372.09 653.409 417.739 656.576 422.433C652.08 431.628 607.043 475.256 597.541 484.406C586.316 474.372 575.647 463.731 565.586 452.53C562.071 449.065 558.469 444.88 555.135 441.168L555.08 436.608C524.435 436.552 508.186 408.411 497.342 383.673L491.607 366.037C488.096 344.666 480.543 324.708 477.022 301.228C477.462 286.049 486.457 282.365 498.394 275.747C514.55 281.109 523.221 276.727 536.153 266.5C547.926 268.716 551.19 267.199 562.363 262.598Z" fill="#FEB787"/>
    <path d="M555.08 436.608C582.958 431.385 603.636 420.64 620.567 396.771C626.839 387.93 629.83 378.961 633.069 368.779C633.579 368.44 634.088 368.101 634.597 367.762C640.901 376.373 621.436 401.967 615.6 409.332C598.133 431.377 595.613 446.614 565.586 452.531C562.071 449.065 558.469 444.88 555.135 441.169L555.08 436.608Z" fill="#F89B64"/>
    <path d="M491.607 366.037C507.733 354.858 517.562 377.356 497.342 383.673L491.607 366.037Z" fill="#F89B64"/>
    <path d="M583.623 338.602C588.033 336.769 593.089 337.47 596.834 340.433C600.578 343.397 602.424 348.158 601.654 352.871C600.884 357.586 597.622 361.512 593.129 363.131C586.41 365.552 578.987 362.167 576.406 355.507C573.824 348.847 577.028 341.343 583.623 338.602Z" fill="#F89B64"/>
    <path d="M523.715 333.248C532.43 339.324 523.082 361.491 524.343 370.93C529.023 377.656 534.32 370.847 540.516 373.753L540.717 376.184C535.767 377.851 527.123 380.292 523.297 375.55C517.283 368.094 522.126 356.115 522.876 347.572C523.303 342.702 523.345 338.045 523.715 333.248Z" fill="#F89B64"/>
    <path d="M558.974 385.349C560.919 381.741 560.193 381.611 563.119 380.355C565.733 389.576 549.941 398.949 540.642 395.631L539.007 393.897L539.509 392.525L540.844 393.195C543.492 391.492 555.826 385.755 558.974 385.349Z" fill="#F89B64"/>
    <path d="M540.844 393.195C543.492 391.492 555.826 385.755 558.974 385.349C553.741 392.06 549.413 393.836 540.844 393.195Z" fill="#FEFFFE"/>
    <path d="M548.062 299.897C553.154 299.595 558.756 300.295 562.633 303.922L562.099 304.618C557.76 306.616 554.467 305.44 549.289 305.043C545.378 306.953 540.469 310.517 536.985 307.118C539.094 301.904 543.065 301.466 548.062 299.897Z" fill="#0C2645"/>
    <path d="M497.674 310.461C499.913 310.821 501.262 311.534 503.318 312.422L503.928 314.188C499.517 317.142 494.285 315.849 488.019 319.942C487.402 320.629 486.481 321.1 485.649 321.636L483.99 320.743L484.193 318.319C488.231 312.119 490.564 312.126 497.674 310.461Z" fill="#0C2645"/>
    <path d="M553.531 327.813C561.807 329.602 562.078 336.416 558.176 342.754C550.141 341.085 550.662 333.819 553.531 327.813Z" fill="#0C2645"/>
    <path d="M626.183 330.016C629.164 332.208 628.948 334.852 629.757 338.673C632.844 341.397 630.893 337.947 636.237 338.47L636.562 340.599C633.427 342.852 633.078 343.363 629.41 344.026C623.377 341.459 624.686 335.513 626.183 330.016Z" fill="#F89B64"/>
    <path d="M498.498 339.864C502.442 341.195 502.895 342.462 504.19 345.948C503.959 349.634 503.769 350.027 501.569 353.001C497.982 351.589 497.821 350.529 496.332 347.648C496.245 343.655 496.298 343.179 498.498 339.864Z" fill="#0C2645"/>
    <path d="M479.861 501.935C484.133 497.859 489.642 496.453 495.33 496.106C508.221 499.151 503.772 501.754 510.151 510.726C512.748 514.377 521.816 515.835 522.925 522.407C524.38 526.203 524.801 537.086 526.596 538.348L530.177 541.489C542.837 559.509 533.955 574.115 537.818 581.902C548.679 600.918 540.131 619.704 527.789 635.516C521.416 642.739 515.524 648.523 508.638 655.258C493.124 674.017 490.694 705.631 484.041 730.528C463.66 710.846 442.41 688.582 422.198 668.317C406.399 667.072 375.367 667.997 358.841 667.996C360.311 657.508 361.737 647.06 363.239 636.572C370.415 586.436 398.168 536.35 439.611 506.281C442.737 512.596 445.503 519.48 448.258 525.996C450.596 525.58 465.511 512.364 468.472 509.848C471.701 507.377 474.891 504.854 478.042 502.282L479.861 501.935Z" fill="#FEB787"/>
    <path d="M495.33 496.106C508.221 499.151 503.772 501.754 510.151 510.726C512.748 514.377 521.816 515.835 522.925 522.407C524.38 526.203 524.801 537.086 526.596 538.348C524.425 542.211 521.747 555.381 516.233 565.366C510.58 575.6 491.175 599.861 480.452 603.053L479.58 602.11C481.955 597.99 487.314 593.806 490.913 590.526C507.005 575.862 525.919 551.352 521.093 528.124C519.76 521.703 515.896 517.951 511.653 513.377C510.407 516.758 509.089 520.113 507.699 523.437C500.58 540.183 477.853 566.733 460.924 573.552L459.59 572.871C459.891 571.046 460.42 569.671 462.001 568.519C474.707 559.279 486.075 550.009 495.619 537.425C506.189 523.485 512.495 508.282 495.33 496.106Z" fill="#F89B64"/>
    <path d="M530.177 541.489C542.837 559.509 533.955 574.115 537.818 581.902C531.563 586.145 509.066 630.885 492.962 632.165L492.654 630.475C509.132 614.627 537.557 588.803 534.47 562.667C533.659 555.805 530.967 549.311 530.177 541.489Z" fill="#F89B64"/>
    <path d="M479.861 501.934C475.061 509.326 436.879 542.202 427.332 551.143L425.266 551.394L424.573 550.001C428.312 543.348 442.63 531.785 448.258 525.995C450.596 525.58 465.511 512.364 468.472 509.848C471.701 507.376 474.891 504.854 478.041 502.282L479.861 501.934Z" fill="#F89B64"/>
    <path d="M257.572 668.13C264.942 668.173 311.055 669.223 314.712 666.951C320.324 669.305 350.421 668.181 358.841 667.996C375.367 667.997 406.399 667.072 422.198 668.317C386.706 703.856 351.428 739.607 316.365 775.569C304.989 787.184 293.82 798.869 283.032 811.067C282.047 812.18 280.91 812.386 279.523 812.623C227.563 812.572 172.676 811.65 121.001 812.844C117.285 812.676 113.665 812.857 110.337 811.381C123.699 796.905 143.439 778.883 157.961 764.718L257.572 668.13Z" fill="#69C0AE"/>
    <path d="M538.89 174.905C557.87 145.151 590.263 141.506 608.781 173.771C628.559 174.254 647.797 185.615 647.229 207.44C647.162 209.446 647.031 211.448 646.837 213.446C666.762 223.092 674.198 237.884 660.48 257.314C670.335 279.917 666.32 290.96 648.031 307.29C630.941 284.079 620.215 310.734 612.233 311.718C600.113 306.735 605.095 286.893 599.003 277.491C593.978 269.738 571.65 265.137 562.363 262.597C551.19 267.199 547.926 268.716 536.153 266.499C523.221 276.726 514.549 281.109 498.393 275.747C486.457 282.364 477.462 286.049 477.021 301.228C457.206 289.539 464.035 286.206 466.385 266.821C466.803 263.371 463.013 258.861 464.73 252.659C466.162 247.485 472.6 243.341 473.048 241.2C476.617 224.15 471.478 223.566 488.315 213.266C489.43 209.872 491.927 203.618 495.847 202.206C519.665 193.625 507.964 174.864 538.89 174.905Z" fill="#0C2645"/>
    <path d="M1126.45 381.408C1135.9 380.888 1138.88 380.046 1146.79 385.342L1148.1 385.982L1148.92 388.746C1157.01 389.611 1168.63 386.171 1167.59 400.635C1167.39 403.459 1164.53 408.254 1165.42 410.656L1166.56 411.688C1171.12 420.885 1170.04 427.248 1162.83 434.717C1167.06 441.331 1167.33 443.093 1166.97 450.996C1159.87 469.517 1151.08 475.021 1139.69 489.371C1131.98 499.093 1128.69 524.808 1124.58 538.067C1118.15 558.85 1113.14 571.042 1100.58 589.014C1098.25 587.627 1094.88 584.601 1092.67 582.76C1070.51 563.531 1045.47 545.038 1024.2 525.382C1033.48 512.058 1029.69 509.154 1031.65 493.493C1037.23 448.861 1052.9 426.021 1086.21 398.832C1098.55 391.371 1111.92 382.861 1126.45 381.408Z" fill="#FEB787"/>
    <path d="M1146.79 385.342L1148.1 385.982L1148.92 388.746C1157.01 389.611 1168.63 386.171 1167.59 400.635C1167.39 403.458 1164.53 408.254 1165.42 410.656C1148.05 419.091 1134.21 426.834 1119.76 439.621C1114.84 443.973 1105.04 456.452 1100.07 457.275C1101.51 442.663 1150.44 413.969 1162.22 404.756C1164.76 402.762 1163.42 395.579 1160.2 393.533C1153.43 389.22 1146.58 393.111 1140.1 396.049C1127.1 402.297 1115.29 409.785 1104.24 418.968C1098.99 423.149 1083.28 440.083 1078.71 440.864C1080.01 429.518 1121.49 400.583 1133.55 395.676C1139.19 393.383 1144.67 391.014 1146.79 385.342Z" fill="#F89B64"/>
    <path d="M1166.56 411.688C1171.12 420.885 1170.04 427.248 1162.83 434.717C1153.95 441.993 1144.28 449.528 1136.25 457.664C1129.99 464.016 1124.85 472.297 1118.02 478.062L1117.41 477.347C1129.42 451.135 1149.04 444.868 1164.3 427.889L1165.08 427.01C1165.1 422.165 1164.69 415.984 1166.56 411.688Z" fill="#F89B64"/>
    <path d="M947.687 236.306C913.531 223.859 897.315 187.082 917.63 155.966C925.541 143.967 937.913 135.633 952.01 132.829C965.798 130.029 980.14 132.893 991.798 140.778C1005.6 150.219 1012.43 163.001 1015.49 179.036C1044.07 180.662 1061.98 192.07 1075.83 216.997C1076.07 217.085 1076.33 217.171 1076.57 217.258L1077.8 217.717C1090.51 222.381 1099.86 232.109 1086.55 243.092C1083.6 240.174 1082.97 240.071 1078.91 239.07C1068.48 239.87 1069.99 251.46 1053.86 243.564C1042 249.41 1039.21 249.919 1026.2 249.7C1021.05 259.765 1018.99 261.195 1008.9 266.35C1009.1 273.413 1008.6 279.207 1005.14 285.618L1002.46 286.345C994.375 279.976 992.299 260.36 981.087 260.349C976.37 262.04 975.018 265.453 972.804 269.693C967.544 279.761 971.899 292.162 975.135 302.556C953.053 284.947 943.961 264.473 947.687 236.306Z" fill="#0C2645"/>
    <path d="M1053.86 243.564C1069.99 251.46 1068.48 239.87 1078.91 239.07C1082.97 240.071 1083.6 240.174 1086.55 243.092C1085.65 248.308 1087.7 257.255 1087.19 264.368L1087.09 265.819C1087.23 272.731 1087.34 279.643 1087.4 286.557C1087.24 290.008 1087.16 295.096 1086.67 298.381C1082.15 318.837 1072.66 348.301 1046.95 348.854L1046.92 355.493C1046.77 365.876 1046.83 376.262 1047.1 386.643C1052.65 388.114 1069.95 391.824 1073.58 393.938C1072.4 397.245 1070.75 402.091 1068.88 404.992C1046.52 439.923 982.833 430.043 963.36 397.039C970.802 393.732 980.576 390.275 988.359 387.305L988.349 316.431C981.588 311.729 979.937 309.163 975.135 302.556C971.899 292.162 967.544 279.761 972.804 269.693C975.018 265.453 976.37 262.04 981.087 260.349C992.299 260.36 994.375 279.976 1002.46 286.345L1005.14 285.618C1008.6 279.207 1009.1 273.413 1008.9 266.35C1018.99 261.195 1021.05 259.765 1026.2 249.699C1039.21 249.919 1042 249.41 1053.86 243.564Z" fill="#FEB787"/>
    <path d="M1046.92 355.493C1045.88 359.348 1046.73 358.378 1044.04 360.551C1027.71 361.893 997.622 329.778 992.554 315.667L993.672 314.38C1000.69 316.811 1005.93 344.123 1046.95 348.854L1046.92 355.493Z" fill="#F89B64"/>
    <path d="M1086.68 298.381C1084.66 298.515 1082.95 298.287 1080.95 298.107C1077.95 296.049 1077.75 295.668 1076.66 292.189C1077.14 288.248 1076.54 289.729 1078.92 286.567C1083.26 284.822 1082.13 285.392 1087.4 286.557C1087.24 290.008 1087.16 295.096 1086.68 298.381Z" fill="#F89B64"/>
    <path d="M1087.09 265.819C1083.03 265.853 1077.48 265.209 1074.29 262.695L1075.11 261.102C1080.72 259.613 1082.7 261.26 1087.19 264.368L1087.09 265.819Z" fill="#0C2645"/>
    <path d="M1019.81 284.655C1025.01 283.593 1030.1 286.91 1031.21 292.096C1032.34 297.283 1029.1 302.411 1023.92 303.599C1020.51 304.382 1016.96 303.273 1014.6 300.698C1012.24 298.123 1011.45 294.48 1012.53 291.159C1013.6 287.839 1016.39 285.354 1019.81 284.655Z" fill="#F89B64"/>
    <path d="M1057.89 269.071L1060.62 271.128C1063.96 278.797 1070.21 289.593 1067.74 297.765C1065.56 301.181 1063.29 301.461 1059.39 302.869C1057.13 300.461 1057.4 301.432 1056.99 298.626C1059.74 297.46 1060.98 297.365 1063.95 296.851C1067.81 289.995 1056.37 284.058 1057.89 269.071Z" fill="#F89B64"/>
    <path d="M1036.12 269.21C1039 270.305 1039.05 270.411 1040.9 272.977C1041.63 276.656 1040.84 277.78 1039.48 281.368C1035.53 279.538 1036.81 280.665 1034.43 277.216C1033.85 273.467 1034.45 272.692 1036.12 269.21Z" fill="#0C2645"/>
    <path d="M1043.45 310.515C1048.76 312.011 1053.55 311.905 1059.04 313.153L1058.9 315.269C1052.47 317.166 1046.78 317.447 1043.45 310.515Z" fill="#FEFFFE"/>
    <path d="M1035.39 253.702C1039.65 253.902 1042.16 253.52 1044.15 257.643C1041.2 258.793 1041.67 258.21 1037.77 256.967C1034.28 258.444 1033.38 259.596 1030.36 258.719C1031.66 255.425 1031.84 256.15 1035.39 253.702Z" fill="#0C2645"/>
    <path d="M988.008 286.269C988.615 286.506 989.434 287.174 990.02 287.589C988.615 291.876 988.061 293.916 987.72 298.489L985.708 296.621C985.037 292.413 986.389 290.273 988.008 286.269Z" fill="#F89B64"/>
    <path d="M364.649 318.62L365.949 319.12C372.535 321.596 381.785 323.113 387.716 327.218C405.871 339.783 421.291 362.403 430.362 382.265C443.693 411.448 459.328 466.574 433.317 492.136C425.812 494.379 417.787 496.347 410.136 493.394C384.702 483.574 364.908 450.109 353.968 426.426C343.068 402.825 332.424 364.823 341.771 339.872C346.516 327.204 353.444 323.565 364.649 318.62Z" fill="#69C0AE"/>
    <path d="M366.08 327.517C418.836 327.67 472.927 473.145 421.616 486.975C372.629 485.521 312.204 343.202 366.08 327.517Z" fill="#D7EDEA"/>
    <path d="M363.076 336.803C405.766 338.591 451.349 453.469 422.646 477.689C383.584 477.372 335.049 365.32 363.076 336.803Z" fill="#8DD2C3"/>
    <path d="M364.649 318.619C378.964 312.453 391.016 305.726 406.446 312.277C432.253 323.235 450.968 353.155 461.513 378.13C473.962 407.614 484.047 450.501 464.936 478.705L465.825 479.559C466.364 483.516 474.386 501.062 478.041 502.282C474.891 504.853 471.701 507.376 468.472 509.848C465.511 512.364 450.596 525.58 448.258 525.995C445.503 519.48 442.737 512.596 439.611 506.281C398.168 536.35 370.415 586.436 363.239 636.572C361.737 647.06 360.311 657.508 358.841 667.996C350.421 668.181 320.324 669.305 314.712 666.951C332.055 621.672 357.935 572.826 390.841 536.551C402.812 523.357 420.449 510.403 434.963 500.071C435.674 496.711 434.642 495.762 433.317 492.136C459.328 466.574 443.693 411.448 430.363 382.264C421.291 362.402 405.871 339.782 387.716 327.218C381.785 323.112 372.535 321.596 365.949 319.12L364.649 318.619Z" fill="#0C2645"/>
    <path d="M457.328 483.482L464.936 478.705L465.825 479.559C466.364 483.516 474.386 501.062 478.042 502.282C474.891 504.854 471.701 507.377 468.472 509.848C465.761 501.06 461.2 491.9 457.328 483.482Z" fill="#415F72"/>
    <path d="M1146.08 216.284C1151.77 211.138 1158.99 205.228 1166.79 206.136C1197.78 210.135 1200.91 261.705 1198.9 286.024C1197.06 308.226 1190.1 339.116 1173.04 354.218C1160.02 365.736 1146.28 361.951 1136.38 348.565C1135.4 347.261 1134.47 345.919 1133.6 344.543C1130.31 332.74 1124.9 319.453 1123.91 307.311C1121.4 276.655 1125.89 240.469 1146.08 216.284Z" fill="#D7EDEA"/>
    <path d="M1162.09 216.26C1197.75 214.798 1194.82 323.579 1159.86 350.887C1133.29 348.726 1133.36 292.036 1136.21 272.247C1139.28 250.868 1144.25 230.015 1162.09 216.26Z" fill="#8DD2C3"/>
    <path d="M1127.98 366.491C1079.28 359.538 1087.37 233.627 1119.88 208.433C1136.62 195.458 1142.15 198.173 1162.14 198.463C1154.89 202.736 1145.88 206.624 1146.08 216.284C1125.89 240.47 1121.4 276.655 1123.91 307.312C1124.9 319.453 1130.31 332.74 1133.6 344.543C1133.61 351.209 1136.48 356.103 1141.09 360.665C1143.31 362.823 1145.6 364.897 1147.96 366.883L1127.98 366.491Z" fill="#415F72"/>
    <path d="M1162.14 198.462C1228.8 198.494 1212.67 370.3 1153.96 368.68C1152.99 368.652 1152.01 368.608 1151.03 368.55C1150.53 371.989 1149.1 383.312 1148.1 385.982L1146.79 385.342C1138.88 380.046 1135.9 380.887 1126.45 381.408L1127.98 366.491L1147.96 366.883C1145.6 364.897 1143.31 362.823 1141.09 360.664C1136.48 356.103 1133.61 351.209 1133.6 344.543C1134.47 345.919 1135.4 347.261 1136.38 348.565C1146.28 361.951 1160.02 365.736 1173.04 354.218C1190.1 339.116 1197.06 308.226 1198.9 286.024C1200.91 261.705 1197.78 210.135 1166.79 206.136C1158.99 205.228 1151.77 211.138 1146.08 216.284C1145.88 206.623 1154.89 202.736 1162.14 198.462Z" fill="#0C2645"/>
    <path d="M1270.64 598.804C1272.86 567.748 1275.73 507.573 1279.31 474.003C1279.96 473.313 1280.61 472.622 1281.26 471.932C1283.21 478.01 1270.65 678.408 1268.23 683.291C1268.07 683.615 1267.89 683.929 1267.72 684.248C1264.75 675.177 1269.28 612.534 1270.64 598.804Z" fill="#D7EDEA"/>
    <path d="M1633.77 81.0302C1654.22 77.0418 1662.27 110.36 1665.15 125.165C1674.02 170.833 1649.21 214.056 1654.68 259.468C1660.08 308.561 1700.4 331.643 1692.74 383.78C1682.01 456.827 1630.06 492.172 1650.19 571.594C1696.47 543.459 1666.96 502.424 1682.47 463.108C1691.13 441.133 1717.39 426.882 1722.69 404.84C1729.21 377.773 1714.42 361.675 1733.44 333.235C1746.44 313.814 1761.19 283.749 1778.48 267.134C1780.96 264.757 1785.75 263.506 1789.04 262.622C1810.26 271.707 1802.72 288.883 1797.18 305.905C1793.65 314.143 1792.27 323.865 1790.44 332.216C1784.04 361.262 1808.66 413.401 1800.94 440.082C1783.9 499.016 1759.47 505.282 1793.22 567.495C1812.08 602.254 1751.45 658.896 1767.79 696.478C1770.38 704.619 1776.4 714.164 1780.18 721.81C1802.39 766.729 1758.81 797.257 1745.13 835.204C1734 866.054 1760.7 893.587 1746.84 924.986C1735.62 958.501 1705.41 980.775 1695.78 1014.93C1689.73 1036.35 1697.53 1055.32 1697.59 1076.39C1697.74 1130.41 1658.55 1191.48 1601.34 1195.74C1599.87 1196.62 1416.65 1196.12 1399.28 1196.11L1399.36 826.608C1430.29 795.379 1469.41 749.593 1498.51 716.005C1498.1 696.429 1500.48 675.518 1499.09 655.203C1495.16 597.764 1477.65 577.881 1502.16 521.604C1508 511.764 1515.74 499.521 1519.58 488.981C1532.99 452.148 1510.51 429.488 1520.97 390.265C1530.17 352.61 1561.28 321.153 1566.72 282.258C1571.8 245.891 1559.9 214.77 1573.25 178.288C1583.69 149.74 1606.05 95.7204 1633.77 81.0302Z" fill="#69C0AE"/>
    <path d="M1633.77 81.0302C1654.22 77.0418 1662.27 110.36 1665.15 125.165C1674.03 170.833 1649.21 214.056 1654.68 259.468C1660.08 308.561 1700.4 331.643 1692.74 383.78C1682.01 456.827 1630.06 492.172 1650.19 571.594C1655.12 587.098 1659.02 598.001 1661.66 614.205C1669.82 664.353 1632.29 692.162 1632.76 741.654C1633 767.608 1639.32 785.894 1646.72 810.622C1658.73 850.79 1661.77 893.832 1642.02 932.15C1630.32 954.85 1612.68 971.955 1604.77 996.008C1598.2 1016.02 1604.4 1034.2 1603.35 1054.44C1602.66 1067.84 1598.99 1077.6 1594.2 1089.8L1594.14 900.745C1594.15 891.089 1594.87 832.301 1593.56 826.341C1581.83 812.101 1568.82 798.416 1556.92 783.83C1537.57 762.513 1516.96 738.122 1498.51 716.005C1498.1 696.429 1500.48 675.518 1499.09 655.203C1495.16 597.764 1477.65 577.881 1502.16 521.604C1508 511.764 1515.74 499.522 1519.58 488.981C1532.99 452.148 1510.51 429.488 1520.97 390.265C1530.17 352.61 1561.28 321.153 1566.72 282.258C1571.8 245.891 1559.9 214.77 1573.25 178.288C1583.69 149.74 1606.05 95.7204 1633.77 81.0302Z" fill="#69C0AE"/>
    <path d="M1502.16 521.604C1508 511.764 1515.74 499.521 1519.58 488.981C1532.99 452.148 1510.51 429.488 1520.97 390.265C1530.17 352.61 1561.28 321.153 1566.72 282.258C1571.8 245.891 1559.9 214.77 1573.25 178.288C1583.69 149.74 1606.05 95.7203 1633.77 81.03C1627.24 104.141 1621.5 123.83 1623.48 148.243C1625.58 174.127 1631.66 191.964 1626.86 218.308C1620.14 255.245 1594.08 279.045 1596.4 318.383C1598.94 361.347 1631.07 394.498 1617.99 439.617C1613.39 455.512 1605.05 466.717 1596.23 480.609C1576.21 512.138 1566.12 536.703 1562.61 573.522C1557.3 629.393 1596.11 658.713 1583.96 714.013C1579.82 732.853 1573.36 747.678 1565.31 765.147C1563.51 769.065 1558.15 780.176 1556.92 783.83C1537.57 762.513 1516.96 738.122 1498.51 716.005C1498.1 696.429 1500.48 675.518 1499.09 655.203C1495.16 597.764 1477.65 577.881 1502.16 521.604Z" fill="#8DD2C3"/>
    <path d="M1498.51 716.005C1516.96 738.121 1537.57 762.513 1556.92 783.83C1568.82 798.416 1581.83 812.101 1593.56 826.341C1591.51 848.688 1593.1 894.469 1593.1 918.972C1592.87 981.738 1592.98 1044.51 1593.43 1107.28C1593.52 1128.31 1592.86 1149.44 1592.94 1170.46C1592.96 1175.69 1592.74 1191.61 1593.7 1195.9L1601.34 1195.74C1599.87 1196.62 1416.65 1196.12 1399.28 1196.11L1399.36 826.608C1430.29 795.379 1469.41 749.593 1498.51 716.005Z" fill="#D7EDEA"/>
    <path d="M1650.19 571.594C1696.47 543.459 1666.96 502.424 1682.47 463.108C1691.13 441.133 1717.39 426.882 1722.69 404.84C1729.21 377.772 1714.42 361.675 1733.44 333.235C1746.44 313.814 1761.19 283.749 1778.48 267.134C1780.96 264.757 1785.75 263.506 1789.04 262.622C1781.34 280.257 1772.52 296.817 1765.92 314.96C1756.87 339.843 1749.9 366.426 1751.99 393.11C1753.55 412.771 1759.79 432.032 1756.2 451.87C1751.02 482.195 1725.86 494.049 1720.2 524.303C1714.48 554.812 1735.13 574.959 1732.06 604.285C1728.53 638.085 1701.26 651.708 1694.87 685.755C1688.8 718.033 1703.47 734.116 1700.84 765.606C1698.66 791.865 1680.49 803.918 1675.22 827.868C1669.73 852.831 1690.49 871.664 1686.89 896.755C1681.46 934.582 1651.91 957.377 1641.15 994.081C1632.06 1025.09 1645.31 1051.11 1633.05 1079.27C1626.86 1093.53 1605.17 1118.41 1594.28 1131.08C1594.16 1142.12 1594.93 1188.02 1593.7 1195.9C1592.74 1191.61 1592.96 1175.69 1592.94 1170.46C1592.86 1149.44 1593.52 1128.31 1593.43 1107.28C1592.98 1044.51 1592.87 981.738 1593.1 918.972C1593.1 894.469 1591.51 848.688 1593.56 826.341C1594.87 832.3 1594.15 891.089 1594.14 900.745L1594.2 1089.8C1598.99 1077.6 1602.66 1067.84 1603.35 1054.44C1604.4 1034.2 1598.2 1016.02 1604.77 996.008C1612.68 971.955 1630.32 954.85 1642.02 932.15C1661.77 893.831 1658.72 850.79 1646.71 810.622C1639.32 785.894 1633 767.608 1632.76 741.654C1632.29 692.162 1669.82 664.353 1661.66 614.205C1659.02 598.001 1655.12 587.098 1650.19 571.594Z" fill="#8DD2C3"/>
    <path d="M997.537 531.66C1001.07 529.128 1009.62 519.753 1012.99 516.216C1017.69 519.55 1019.95 521.464 1024.2 525.382C1045.47 545.038 1070.51 563.531 1092.67 582.76C1094.88 584.601 1098.25 587.627 1100.58 589.014C1105.86 591.859 1114.06 598.557 1118.48 602.749L1118.05 604.031C1110.18 626.969 1090.34 654.674 1082.91 677.944C1081.75 681.567 1082 703.706 1082 708.938V763.553L1082.05 976.845C1082.05 983.708 1081.22 1032.03 1083.37 1035.32C1092.04 1026.04 1100.8 1016.85 1109.66 1007.74C1198.05 1007.06 1289.84 1006.93 1378.18 1007.93C1379.15 1067.97 1379.28 1136.27 1378.27 1196.26L1365.26 1196.15C1357.25 1196.24 1349.02 1196.14 1340.99 1196.12L1323.52 1196.28L1323.57 1063.14L1153.96 1063.13C1122.65 1063.11 1090.38 1063.85 1059.21 1063.2C1059.97 1106.85 1059.4 1152.27 1059.41 1196.07C1010.25 1197.22 956.62 1196.19 907.111 1196.2V622.37C926.159 601.102 951.797 578.637 971.569 557.555C979.181 549.436 989.807 540.357 996.568 531.814L997.537 531.66Z" fill="#D7EDEA"/>
    <path d="M1109.66 1007.74C1198.05 1007.06 1289.84 1006.94 1378.18 1007.93C1359.72 1025.7 1341.55 1043.77 1323.69 1062.15L1058.82 1062.22C1066.91 1053.17 1075.09 1044.2 1083.37 1035.32C1092.04 1026.04 1100.8 1016.85 1109.66 1007.74Z" fill="#69C0AE"/>
    <path d="M997.537 531.66C1001.07 529.128 1009.62 519.753 1012.99 516.216C1017.69 519.55 1019.95 521.464 1024.2 525.382C1045.47 545.038 1070.51 563.531 1092.67 582.76C1089.06 583.598 1090.42 583.504 1086.37 581.598C1093.8 588.756 1105.7 597.886 1113.97 604.536C1103.63 625.307 1093.11 645.985 1082.39 666.57C1081.98 652.223 1082.18 636.428 1082.12 621.973C1058.79 595.424 1025.11 561.29 1000.26 535.547L998.623 535.219L997.537 531.66Z" fill="#FEFFFE"/>
    <path d="M997.537 531.66C1001.07 529.128 1009.62 519.753 1012.99 516.216C1017.69 519.55 1019.95 521.464 1024.2 525.382C1045.47 545.038 1070.51 563.531 1092.67 582.76C1089.06 583.598 1090.42 583.504 1086.37 581.598C1062.54 561.96 1036.98 541.055 1013.74 520.857L1000.26 535.547L998.623 535.219L997.537 531.66Z" fill="#D7EDEA"/>
    <path d="M1340.9 1150.45L1365.43 1150.49C1365.46 1165.24 1365.82 1181.52 1365.26 1196.15C1357.25 1196.25 1349.02 1196.14 1340.99 1196.12L1340.9 1150.45Z" fill="#0C2645"/>
    <path d="M950.2 1023.15L976.253 1023.29L976.19 1051.28L950.115 1051.39L950.2 1023.15Z" fill="#0C2645"/>
    <path d="M950.062 909.593L976.2 909.706L976.275 937.388L950.179 937.463L950.062 909.593Z" fill="#0C2645"/>
    <path d="M950.062 796.903L976.328 796.811L976.307 824.208L950.04 824.519L950.062 796.903Z" fill="#0C2645"/>
    <path d="M950.104 739.462L976.157 739.481C976.264 748.666 976.232 757.853 976.062 767.038L950.125 767.143L950.104 739.462Z" fill="#0C2645"/>
    <path d="M1011.76 1023.16L1037.29 1023.23L1037.25 1051.37L1011.72 1051.22C1011.67 1041.87 1011.68 1032.52 1011.76 1023.16Z" fill="#0C2645"/>
    <path d="M950.115 966.266L976.126 966.356L976.264 993.495L950.2 993.772L950.115 966.266Z" fill="#0C2645"/>
    <path d="M950.093 853.484L976.062 853.558C976.285 862.572 976.136 871.901 976.104 880.946L950.115 881.038L950.093 853.484Z" fill="#0C2645"/>
    <path d="M1011.67 739.496L1037.33 739.448L1037.25 766.992L1011.61 767.128L1011.67 739.496Z" fill="#0C2645"/>
    <path d="M1011.69 909.687C1019.91 909.482 1029 909.683 1037.29 909.704L1037.28 937.325L1011.66 937.453L1011.69 909.687Z" fill="#0C2645"/>
    <path d="M1011.71 796.825L1037.33 796.793V824.208L1011.67 824.421L1011.71 796.825Z" fill="#0C2645"/>
    <path d="M1011.67 853.471L1037.28 853.469L1037.29 880.837L1011.67 880.986V853.471Z" fill="#0C2645"/>
    <path d="M950.147 683.964L976.264 683.927L976.381 710.672L950.168 710.77L950.147 683.964Z" fill="#0C2645"/>
    <path d="M1011.73 966.299L1037.26 966.235L1037.27 993.41C1028.94 993.676 1019.98 993.591 1011.59 993.655L1011.73 966.299Z" fill="#0C2645"/>
    <path d="M1011.69 683.904L1037.27 683.882L1037.28 710.693L1011.6 710.786L1011.69 683.904Z" fill="#0C2645"/>
    <path d="M279.523 812.623C280.91 812.386 282.047 812.18 283.032 811.067C293.82 798.869 304.989 787.184 316.365 775.569C351.428 739.607 386.706 703.856 422.198 668.317C442.41 688.582 463.66 710.846 484.041 730.528C507.106 754.833 532.493 779.505 554.804 804.087L554.806 866.652C571.329 883.337 600.877 912.054 615.979 929.664C616.033 939.926 616.19 950.351 616.129 960.596C621.472 967.347 632.653 977.932 639.177 984.347L639.261 1196.13H588.527L558.404 1196.12L535.923 1196.17L535.882 1021.02L459.191 1021.01L459.187 1196.06L431.247 1196.15C432.212 1109.37 431.483 1020.31 431.261 933.444C392.887 932.699 353.966 933.985 315.423 933.11C316.246 960.542 315.496 992.707 315.502 1020.48L315.471 1196.16L282.343 1196.13L282.383 903.012C282.384 890.073 284.103 821.442 281.872 813.799L279.523 812.623Z" fill="#D7EDEA"/>
    <path d="M419.54 837.281C454.671 837.082 489.802 837.154 524.933 837.5C493.054 868.835 461.824 900.824 431.261 933.444C392.887 932.699 353.966 933.985 315.423 933.11C350.715 902.413 384.696 868.692 419.54 837.281Z" fill="#69C0AE"/>
    <path d="M558.359 1145.29H588.499L588.527 1196.13L558.404 1196.12C558.129 1179.18 558.115 1162.23 558.359 1145.29Z" fill="#0C2645"/>
    <path d="M531.385 951.16C554.859 950.294 582.92 951.146 606.722 951.339C587.545 971.578 556.918 1000.26 536.372 1019.86L458.558 1019.9L531.385 951.16Z" fill="#69C0AE"/>
    <path d="M706.017 699.345L719.835 699.013L849.25 699.126C847.855 753.155 849.203 812.801 849.227 867.318L849.329 1196.02L837.125 1196.23C825.838 1196.11 814.287 1196.26 802.976 1196.28L784.902 1196.15L784.989 765.265L639.244 765.409L639.773 764.235C655.657 745.605 687.765 716.315 706.017 699.345Z" fill="#D7EDEA"/>
    <path d="M706.017 699.345L719.835 699.013L849.25 699.126L785.359 764.056L639.773 764.235C655.657 745.605 687.765 716.315 706.017 699.345Z" fill="#69C0AE"/>
    <path d="M802.899 1133.92C814.367 1133.84 825.834 1133.85 837.302 1133.93C837.336 1154.14 837.781 1176.19 837.125 1196.23C825.838 1196.11 814.287 1196.26 802.976 1196.28C802.674 1175.5 802.648 1154.71 802.899 1133.92Z" fill="#0C2645"/>
    <path d="M1276.3 715.895L1498.51 716.005C1469.41 749.593 1430.29 795.379 1399.36 826.608L1108.99 826.677C1123.56 809.123 1138 791.48 1152.35 773.748L1152.7 809.215L1208.08 809.339C1213.3 809.346 1229.66 809.756 1234.02 808.751C1232.13 789.028 1233.16 754.637 1233.2 733.866C1253.73 734.218 1274.33 733.788 1294.72 734.16C1294.16 730.551 1280.23 719.698 1276.3 715.895Z" fill="#69C0AE"/>
    <path d="M1233.2 733.866C1253.73 734.218 1274.33 733.788 1294.72 734.16C1294.24 737.612 1240.38 800.993 1234.02 808.752C1232.13 789.028 1233.16 754.637 1233.2 733.866Z" fill="#D7EDEA"/>
    <path d="M1426.01 400.994C1443.62 401.353 1453.7 402.762 1470.58 397.113C1477.47 427.837 1488.13 458.053 1494.6 489.019C1495.75 494.511 1500.17 517.873 1502.16 521.604C1477.65 577.881 1495.16 597.764 1499.09 655.203C1500.48 675.518 1498.1 696.429 1498.51 716.005L1276.3 715.895L1274.05 714.96C1289.32 713.965 1312.74 714.693 1328.68 714.7L1431.06 714.764C1443.97 635.383 1433.38 542.163 1418.34 463.714C1416.32 453.172 1412.61 427.458 1408.94 418.582C1411.23 410.058 1418.93 405.198 1426.01 400.994Z" fill="#E7F4F2"/>
    <path d="M1234.51 699.887C1234.45 691.124 1232.5 606.951 1232.27 607.247C1239.66 621.938 1237.82 680.162 1238.6 699.858C1244.16 699.815 1250.92 699.519 1256.29 700.453C1262.79 705.401 1267.9 709.589 1274.05 714.96L1276.3 715.895C1280.23 719.698 1294.16 730.552 1294.72 734.16C1274.33 733.788 1253.73 734.218 1233.2 733.866C1226.28 726.555 1203.44 708.623 1194.87 701.538L1195.18 700.612C1198.4 699.351 1228.81 699.877 1234.51 699.887Z" fill="#51AB99"/>
    <path d="M1234.51 699.887C1234.45 691.124 1232.5 606.951 1232.27 607.247C1239.66 621.938 1237.82 680.162 1238.6 699.858C1244.16 699.815 1250.92 699.519 1256.29 700.453C1239.27 702.53 1210.48 699.335 1194.87 701.538L1195.18 700.612C1198.4 699.351 1228.81 699.877 1234.51 699.887Z" fill="#D7EDEA"/>
    <path d="M1173.11 529.185C1177.71 531.534 1178.91 535.69 1181.33 540.134C1195.98 567.037 1198.13 603.086 1161.55 610.746C1163.98 623.198 1180.46 708.371 1178.72 713.893L1176.44 713.143C1171.72 702.509 1159.67 623.62 1157.49 608.066C1216.8 592.494 1169.11 541.48 1173.11 529.185Z" fill="#D7EDEA"/>
    <path d="M701.941 1023.34C710.716 1023.19 719.491 1023.17 728.266 1023.26L728.264 1051.45L701.509 1051.49C701.479 1042.16 701.274 1032.62 701.941 1023.34Z" fill="#0C2645"/>
    <path d="M701.573 909.54L728.194 909.75L728.263 937.472L701.658 937.526L701.573 909.54Z" fill="#0C2645"/>
    <path d="M701.44 966.3L728.197 966.373L728.172 993.964C719.976 994.336 709.748 994.102 701.393 994.155L701.44 966.3Z" fill="#0C2645"/>
    <path d="M701.643 797.06L728.201 797.03L728.274 824.624L701.37 824.749L701.643 797.06Z" fill="#0C2645"/>
    <path d="M701.605 853.565L728.176 853.52L728.224 881.028L701.51 881.138L701.605 853.565Z" fill="#0C2645"/>
    <path d="M483.844 1054.75L506.014 1054.83L505.957 1076.93L483.871 1076.9L483.844 1054.75Z" fill="#0C2645"/>
    <path d="M483.804 1100.39L506.03 1100.43L505.991 1122.3L483.879 1122.25L483.804 1100.39Z" fill="#0C2645"/>
    <path d="M234.801 1102.03L255.97 1102.04L255.923 1124.86L234.832 1124.96L234.801 1102.03Z" fill="#0C2645"/>
    <path d="M185.636 1102.04L206.759 1102.06L206.742 1124.84L185.539 1124.92L185.636 1102.04Z" fill="#0C2645"/>
    <path d="M337.657 966.312L359.012 966.417L359.017 988.948L337.722 989.065L337.657 966.312Z" fill="#0C2645"/>
    <path d="M337.672 1100.55L359.05 1100.57L359.057 1123.11L337.723 1123.12L337.672 1100.55Z" fill="#0C2645"/>
    <path d="M386.237 966.316L407.314 966.431L407.402 989.033L386.203 989.182L386.237 966.316Z" fill="#0C2645"/>
    <path d="M386.084 1100.55L407.349 1100.57L407.353 1123.15L386.154 1123.13L386.084 1100.55Z" fill="#0C2645"/>
    <path d="M337.674 1055.8L359.071 1055.87L359.068 1078.18L337.696 1078.17L337.674 1055.8Z" fill="#0C2645"/>
    <path d="M185.487 927.845L206.832 927.704L206.743 950.166L185.524 950.116L185.487 927.845Z" fill="#0C2645"/>
    <path d="M234.756 927.806L256.159 927.765L256.006 950.092L234.779 950.139L234.756 927.806Z" fill="#0C2645"/>
    <path d="M185.489 840.607L206.779 840.641L206.792 862.979L185.548 862.932L185.489 840.607Z" fill="#0C2645"/>
    <path d="M185.502 1057.94L206.771 1057.92L206.846 1080.14L185.527 1080.24L185.502 1057.94Z" fill="#0C2645"/>
    <path d="M234.716 1057.85L255.955 1057.87L256.049 1080.14L234.805 1080.21L234.716 1057.85Z" fill="#0C2645"/>
    <path d="M185.511 884.284L206.815 884.25L206.763 906.551L185.51 906.53L185.511 884.284Z" fill="#0C2645"/>
    <path d="M386.322 1055.85L407.455 1055.83L407.413 1078.22L386.213 1078.2L386.322 1055.85Z" fill="#0C2645"/>
    <path d="M234.773 840.586L255.971 840.629L256.02 862.991L234.877 862.942L234.773 840.586Z" fill="#0C2645"/>
    <path d="M136.716 1102.11L157.398 1102.29L157.554 1124.88L136.37 1124.93C136.333 1117.1 136.352 1109.97 136.716 1102.11Z" fill="#0C2645"/>
    <path d="M136.376 840.611L157.56 840.559L157.555 862.875L136.42 862.975L136.376 840.611Z" fill="#0C2645"/>
    <path d="M234.695 971.481L256.096 971.331L256.088 993.41L234.764 993.644L234.695 971.481Z" fill="#0C2645"/>
    <path d="M185.504 971.412L206.828 971.266L206.782 993.229L185.487 993.58L185.504 971.412Z" fill="#0C2645"/>
    <path d="M234.865 884.27L256.07 884.273L255.898 906.574L234.902 906.521L234.865 884.27Z" fill="#0C2645"/>
    <path d="M185.546 1014.41L206.797 1014.35L206.714 1036.43L185.537 1036.58L185.546 1014.41Z" fill="#0C2645"/>
    <path d="M136.382 927.803L157.447 927.839L157.494 950.118L136.46 950.087L136.382 927.803Z" fill="#0C2645"/>
    <path d="M136.451 1057.99L157.525 1057.94L157.564 1080.05L136.362 1080.16L136.451 1057.99Z" fill="#0C2645"/>
    <path d="M136.401 884.34L157.506 884.298L157.455 906.469L136.448 906.594L136.401 884.34Z" fill="#0C2645"/>
    <path d="M337.716 1011.94L359.056 1012.04L359.066 1034.2C352.009 1034.11 344.762 1034.23 337.688 1034.26L337.716 1011.94Z" fill="#0C2645"/>
    <path d="M136.398 1014.37H157.47L157.488 1036.33L136.412 1036.49L136.398 1014.37Z" fill="#0C2645"/>
    <path d="M136.428 971.371L157.539 971.364L157.533 993.314L136.438 993.399L136.428 971.371Z" fill="#0C2645"/>
    <path d="M234.767 1014.38H255.964L255.88 1036.41L235.083 1036.46C234.769 1029.35 234.845 1021.56 234.767 1014.38Z" fill="#0C2645"/>
    <path d="M386.375 1011.93L407.387 1011.99L407.25 1034.12C400.296 1034.04 393.085 1034.19 386.108 1034.24C386.37 1027.09 386.3 1019.14 386.375 1011.93Z" fill="#0C2645"/>
    <path d="M1165.54 1088.96L1184.28 1088.83L1184.13 1108.92L1165.35 1108.98L1165.54 1088.96Z" fill="#0C2645"/>
    <path d="M1126.59 1088.9L1145.28 1088.94L1145.46 1108.85L1126.68 1108.91L1126.59 1088.9Z" fill="#0C2645"/>
    <path d="M1126.78 1130.68L1145.52 1130.8L1145.56 1150.65L1126.71 1150.62L1126.78 1130.68Z" fill="#0C2645"/>
    <path d="M1281.35 1088.88L1299.8 1088.83L1299.85 1108.92L1281.25 1108.97L1281.35 1088.88Z" fill="#0C2645"/>
    <path d="M1165.58 1130.79L1184.17 1130.83L1184.27 1150.65L1165.42 1150.73L1165.58 1130.79Z" fill="#0C2645"/>
    <path d="M1087.14 1088.88L1105.66 1088.86L1105.53 1108.84L1087.06 1108.96L1087.14 1088.88Z" fill="#0C2645"/>
    <path d="M1204.08 1088.88H1222.65L1222.55 1108.96L1204.25 1108.88L1204.08 1088.88Z" fill="#0C2645"/>
    <path d="M1204.05 1130.62L1222.61 1130.73V1150.64L1204.2 1150.62L1204.05 1130.62Z" fill="#0C2645"/>
    <path d="M1242.61 1089.01L1260.97 1088.83L1260.92 1108.92L1242.4 1108.95L1242.61 1089.01Z" fill="#0C2645"/>
    <path d="M1087.14 1130.71L1105.61 1130.74L1105.63 1150.65L1087.12 1150.63L1087.14 1130.71Z" fill="#0C2645"/>
    <path d="M1281.31 1130.65L1299.53 1130.71L1299.81 1150.65L1281.28 1150.64L1281.31 1130.65Z" fill="#0C2645"/>
    <path d="M1355.33 949.384L1373.71 949.373V969.283L1355.39 969.305L1355.33 949.384Z" fill="#0C2645"/>
    <path d="M1242.3 949.38L1260.73 949.362L1260.66 969.234L1242.43 969.342L1242.3 949.38Z" fill="#0C2645"/>
    <path d="M1317.09 949.362L1335.24 949.419L1335.38 969.238L1317.07 969.294L1317.09 949.362Z" fill="#0C2645"/>
    <path d="M1166.95 864.095L1185.13 864.189V883.928L1166.85 883.964L1166.95 864.095Z" fill="#0C2645"/>
    <path d="M1128.83 949.422L1146.99 949.488L1147.04 969.311L1128.78 969.248L1128.83 949.422Z" fill="#0C2645"/>
    <path d="M1166.95 949.329L1185.2 949.344L1185.14 969.014L1166.92 969.238L1166.95 949.329Z" fill="#0C2645"/>
    <path d="M1242.64 1130.68L1260.9 1130.89L1260.95 1150.67L1242.61 1150.63C1242.56 1143.99 1242.57 1137.33 1242.64 1130.68Z" fill="#0C2645"/>
    <path d="M1317.07 906.892L1335.31 906.882L1335.37 926.681L1317.19 926.629L1317.07 906.892Z" fill="#0C2645"/>
    <path d="M1166.94 906.842L1185.2 906.833L1185.11 926.447L1166.88 926.678L1166.94 906.842Z" fill="#0C2645"/>
    <path d="M1280 949.333L1298.08 949.371L1298.1 969.186L1280 969.267V949.333Z" fill="#0C2645"/>
    <path d="M1355.36 864.134L1373.63 864.175L1373.66 883.811L1355.39 883.837L1355.36 864.134Z" fill="#0C2645"/>
    <path d="M1204.54 949.402L1222.55 949.437L1222.65 969.368L1204.5 969.21L1204.54 949.402Z" fill="#0C2645"/>
    <path d="M1317.16 864.149L1335.26 864.186L1335.33 883.889L1317.13 883.994L1317.16 864.149Z" fill="#0C2645"/>
    <path d="M1204.6 864.14L1222.68 864.115L1222.48 883.987L1204.45 884.038L1204.6 864.14Z" fill="#0C2645"/>
    <path d="M1280.01 864.094L1298.14 864.077L1298.02 883.945L1280.03 883.932L1280.01 864.094Z" fill="#0C2645"/>
    <path d="M1242.54 864.158L1260.59 864.191L1260.67 883.973L1242.55 883.927L1242.54 864.158Z" fill="#0C2645"/>
    <path d="M1128.9 907.004L1147.07 906.853L1146.94 926.637L1128.83 926.643L1128.9 907.004Z" fill="#0C2645"/>
    <path d="M1280.06 906.836H1298.08L1298 926.705L1280.02 926.633L1280.06 906.836Z" fill="#0C2645"/>
    <path d="M1242.68 907.011L1260.65 906.95L1260.64 926.658L1242.46 926.714L1242.68 907.011Z" fill="#0C2645"/>
    <path d="M1204.63 906.966L1222.55 906.921L1222.58 926.751L1204.53 926.738L1204.63 906.966Z" fill="#0C2645"/>
    <path d="M1128.84 864.199L1147 864.162C1147.04 870.717 1146.93 877.365 1146.87 883.927L1128.76 883.961L1128.84 864.199Z" fill="#0C2645"/>
    <path d="M1355.49 906.941L1373.68 906.956L1373.59 926.611L1355.32 926.709C1355.3 920.153 1355.43 913.506 1355.49 906.941Z" fill="#0C2645"/>
    <path d="M1166.13 738.744L1184.11 738.972L1184.13 757.737L1166.16 757.732L1166.13 738.744Z" fill="#0C2645"/>
    <path d="M1202.88 739.202L1220.53 739.191L1220.4 757.618L1202.74 757.732L1202.88 739.202Z" fill="#0C2645"/>
    <path d="M1172.26 780.471L1184.08 780.579C1183.96 785.179 1185.24 794.104 1183.15 798.051C1182.51 799.269 1181 799.011 1179.18 799.224C1175.56 799.343 1171.15 800.101 1168.06 797.96C1162.8 794.303 1164.49 785.707 1167.94 781.053L1172.26 780.471Z" fill="#0C2645"/>
    <path d="M1202.96 780.49L1220.46 780.65C1220.54 786.984 1220.72 792.835 1220.08 799.16L1202.72 799.101C1202.64 792.895 1202.72 786.69 1202.96 780.49Z" fill="#0C2645"/>
</svg>
