<svg width="1661" height="831" viewBox="0 0 1661 831" fill="none" xmlns="http://www.w3.org/2000/svg">
    <path d="M453.061 334.499C477.997 334.506 480.559 341.48 497.017 355.268C515.279 370.567 521.38 373.247 531.827 395.671C538.758 399.362 544.369 402.056 551.926 404.184C564.477 393.533 579.587 393.08 592.156 404.107C599.461 401.339 604.078 399.188 610.986 395.599C612.72 391.814 614.599 388.097 616.619 384.458C625.087 369.529 632.225 367.363 644.105 357.398C654.511 347.756 661.222 340.262 675.467 336.422C691.922 331.986 710.154 335.179 723.476 346.229C726.041 348.26 729.413 353.154 732.037 354.762C757.525 370.373 773.927 393.829 775.036 425.502C775.799 448.149 767.474 470.162 751.916 486.637C736.486 503.264 715.017 512.987 692.342 513.617C676.853 513.398 665.915 511.724 651.894 504.477C631.011 493.787 615.351 475.092 608.486 452.658C597.248 449.403 593.715 444.85 584.067 441.17C561.639 432.617 554.21 447.331 534.202 452.748C523.995 485.07 496.027 510.515 461.606 513.304C438.611 515.25 415.794 507.915 398.243 492.933C381.069 478.433 370.336 457.722 368.392 435.33C366.693 413.251 373.851 391.404 388.286 374.612C396.792 364.776 401.549 363.608 410.421 356.289C426.144 343.319 431.249 336.016 453.061 334.499Z" fill="#012344"/>
    <path d="M682.918 368.819C715.947 365.093 745.737 388.861 749.44 421.892C753.142 454.924 729.354 484.698 696.32 488.378C663.318 492.054 633.58 468.293 629.881 435.295C626.183 402.296 649.922 372.541 682.918 368.819Z" fill="#FBFBFA"/>
    <path d="M677.753 387.101C682.331 386.513 690.991 386.613 692.6 392.264C688.28 405.511 658.214 388.243 655.342 432.848C653.12 434.987 652.187 435.741 649 435.493C640.084 430.186 645.813 414.038 649.852 407.093C656.35 395.92 665.647 390.329 677.753 387.101Z" fill="#7ED0CB"/>
    <path d="M447.237 369.009C480.052 365.791 509.299 389.7 512.669 422.501C516.039 455.301 492.265 484.658 459.481 488.179C426.48 491.724 396.889 467.76 393.497 434.744C390.105 401.728 414.205 372.248 447.237 369.009Z" fill="#FBFBFA"/>
    <path d="M442.884 386.999C444.277 386.869 445.674 386.782 447.073 386.737C450.572 386.653 457.194 389.924 456.002 392.968C452.387 402.204 439.974 395.595 431.32 404.115C420.449 414.818 420.749 419.903 419.248 433.286C402.135 447.389 401.384 395.63 442.884 386.999Z" fill="#7ED0CB"/>
    <path d="M179.947 232.852C191.684 232.109 208.937 232.28 221.185 232.477C246.434 232.883 274.806 230.021 298.561 238.657C317.317 245.33 332.541 259.359 340.725 277.506C349.736 297.009 350.222 323.923 342.603 343.858C333.554 367.537 318.243 380.757 295.883 390.973C312.412 418.544 332.282 445.609 349.245 473.054C352.353 478.082 364.941 482.177 364.879 489.859C364.785 501.483 351.729 505.057 342.207 505.011C329.657 504.955 322.099 500.944 313.484 492.424C308.514 486.742 296.975 467.539 292.357 460.186C279.642 439.773 266.771 419.458 253.742 399.244L208.303 399.295L208.356 458.917C208.378 469.211 208.97 481.658 207.558 491.39C206.056 501.74 191.984 506.361 183.077 504.065C172.04 501.307 170.005 494.598 169.97 484.249C169.711 406.329 169.793 328.395 169.914 250.474C169.929 240.851 170.956 237.243 179.947 232.852Z" fill="#012344"/>
    <path d="M208.29 268.377L241.891 268.317C260.166 268.304 281.605 267.141 295.646 280.901C315.226 300.088 312.274 330.652 294.8 349.597C278.498 365.049 260.642 364.15 239.809 364.1L208.259 363.993L208.29 268.377Z" fill="#FBFBFA"/>
    <path d="M840.63 258.011C854.823 257.343 860.281 261.04 867.548 272.798C874.483 283.999 881.457 295.262 888.376 306.482L941.612 392.899L994.321 309.125C1003.39 294.733 1012.38 279.287 1022.64 265.77C1027.01 260.01 1031.61 258.276 1038.6 257.955C1052.58 257.316 1058.98 264.832 1058.43 278.382C1058.4 323.028 1058.3 367.593 1058.38 412.2L1058.47 463.553C1058.48 479.386 1063.49 505.001 1040.61 503.274C1036.04 502.929 1027.77 503.395 1024.78 498.91C1018.44 489.385 1020.53 467.675 1020.47 455.966L1020.14 392.315C1019.58 374.778 1019.97 354.967 1019.97 337.249C1010.61 351.39 958.798 434.891 952.553 438.971C947.914 442 941.88 442.673 936.543 441.43C933.323 440.68 930.201 439.147 927.954 436.676C918.903 426.723 911.879 412.699 904.702 401.309L863.688 336.795L862.958 433.595C862.917 452.227 863.282 470.754 862.366 489.552C861.693 503.402 845.642 505.036 834.969 502.136C828.302 500.325 825.423 495.29 825.163 488.539C824.734 477.283 825.123 465.824 825.269 454.441L825.739 398.509C826.064 357.117 825.017 310.099 826.51 269.544C830.524 262.295 832.82 260.433 840.63 258.011Z" fill="#012344"/>
    <path d="M1153.09 346.626C1173.06 343.499 1192.06 352.826 1204.46 368.067C1204.52 359.127 1204.66 349.886 1215.65 349.281C1231.22 348.421 1238.17 348.481 1238.13 365.664C1238.02 405.772 1238.48 445.544 1238.03 485.613C1237.92 491.067 1237.45 498.581 1230.61 499.837C1207.43 504.093 1204.56 499.646 1204.61 480.266C1202.4 482.521 1199.74 484.913 1197.42 487.102C1188.48 494.934 1177.36 499.846 1165.56 501.18C1067.78 512.81 1054.06 357.547 1153.09 346.626Z" fill="#012344"/>
    <path d="M1156.41 378.164C1215.83 371.015 1223.48 459.678 1168.89 470.312C1159.25 470.866 1149.16 470.655 1140.99 465.086C1106.45 441.549 1115.98 388.236 1156.41 378.164Z" fill="#FBFBFA"/>
    <path d="M1433.72 346.615C1435.7 346.404 1438.65 346.333 1440.65 346.286C1457.41 345.774 1473.68 351.986 1485.84 363.537C1500.62 377.796 1506.23 397.477 1506.55 417.542C1506.67 424.242 1505.42 433.454 1496.91 433.957C1486.67 434.562 1476.18 434.257 1465.91 434.229L1402.4 434.194C1402.54 434.951 1402.69 435.706 1402.84 436.459C1409.64 469.253 1439.75 479.467 1467.47 465.48C1476.83 460.759 1479.19 446.388 1492.42 455.648C1496.3 458.594 1504.07 462.243 1505.16 467.052C1506.41 472.59 1499.54 479.455 1495.7 482.726C1468.79 505.468 1425.99 507.686 1397.53 486.444C1363.09 460.74 1359.27 407.47 1384.48 374.132C1396.97 357.61 1413.32 349.292 1433.72 346.615Z" fill="#012344"/>
    <path d="M1437.48 375.735C1459.92 374.795 1469.94 387.884 1474.15 408.204C1463.63 408.424 1452.62 408.266 1442.06 408.262L1403.19 408.146C1408.53 389.418 1417.3 378.696 1437.48 375.735Z" fill="#FBFBFA"/>
    <path d="M570.325 214.19C574.893 213.955 579.079 213.838 582.851 216.546C593.837 224.436 604.885 232.921 615.702 241.03L683.429 291.975L717.312 317.638C733.056 329.583 736.551 328.92 741.207 349.032C721.437 330.023 706.053 319.902 677.643 325.551C673.715 322.398 669.31 319.248 665.204 316.282C635.042 294.494 605.391 271.499 574.82 250.32C568.425 250.717 542.006 271.7 535.179 276.759L469.219 325.613C439.827 319.693 425.265 329.93 404.43 348.981C405.46 345.058 406.462 341.592 408.127 337.915C409.327 335.266 411.534 331.823 413.854 330.162C429.312 319.105 455.655 298.022 470.211 287.809C484.25 277.959 559.175 218.348 570.325 214.19Z" fill="#7ED0CB"/>
    <path d="M1301.05 298.682C1325.53 299.038 1317.29 330.373 1317.02 348.76C1323.07 348.828 1349.68 346.407 1352.95 351.538C1362.7 366.822 1354.66 381.591 1335.51 378.24C1332.79 377.766 1320.24 377.994 1316.31 377.967L1316.2 426.78C1316.18 438.693 1313.8 458.509 1323.63 466.556C1334.53 475.482 1355.03 453.06 1357.28 473.375C1358.13 481.087 1355.04 486.354 1350.32 492.058C1326.02 510.75 1289.58 494.813 1285.4 467.516C1281.35 441.039 1283.28 405.154 1283.36 377.987C1276.89 378.056 1264.54 379.584 1259.74 375.239C1254.72 370.696 1255.08 355.956 1259.92 351.461C1264.62 347.094 1277.52 348.648 1283.75 348.748C1284.31 338.404 1285.69 313.576 1290.92 304.733C1293.33 300.647 1296.7 299.574 1301.05 298.682Z" fill="#012344"/>
    <path d="M682.479 236.093C685.526 236.041 710.142 236.053 711.643 235.669C734.165 229.912 744.736 255.302 723.609 259.47C721.717 262.646 722.641 299.449 722.559 306.774C722.537 308.437 722.387 310.184 722.278 311.851L721.61 312.157C711.675 305.807 697.481 294.379 687.734 286.991C687.768 278.728 688.322 267.05 687.076 259.701C687.159 260.19 674.128 257.191 677.648 245.849C679.157 240.984 676.307 241.416 682.479 236.093Z" fill="#7ED0CB"/>
    <path d="M655.593 540.582C771.484 539.814 1359.6 540.152 1422.28 543.839C1428.66 547.219 1431.51 545.853 1410.2 548.961C1373.05 550.654 1078.14 550.904 1014.21 551.072C882.249 552.001 343.586 551.68 236.241 546.598L234.076 545.11C306.892 540.622 563.29 540.869 655.593 540.582Z" fill="#7ED0CB"/>
    <path d="M578.362 301.126C591.124 301.226 600.843 296.875 599.054 314.657C598.651 318.664 599.723 321.121 597.538 325.197C592.846 325.164 581.63 326.725 578.535 324.232C574.111 320.668 574.702 305.321 578.362 301.126Z" fill="#012344"/>
    <path d="M548.978 301.195C553.192 301.067 564.069 300.043 567.171 302.471C569.967 307.397 570.204 321.043 565.968 325.268C561.225 325.354 550.124 326.296 547.014 323.863C544.56 318.275 543.936 305.429 548.978 301.195Z" fill="#012344"/>
    <path d="M577.874 331.739C589.638 331.805 601.076 327.172 599.156 344.315C598.684 348.542 599.776 350.284 597.449 354.475C592.541 354.479 582.539 355.952 578.749 353.874C573.957 351.246 575.017 335.651 577.874 331.739Z" fill="#012344"/>
    <path d="M547.496 331.744C553.707 331.835 562.165 330.067 566.52 332.937C569.866 337.093 569.938 350.605 567.032 354.567C561.043 354.445 552.333 356.052 548.101 353.511C544.376 349.366 544.538 335.838 547.496 331.744Z" fill="#012344"/>
</svg>
