<svg width="1254" height="1254" viewBox="0 0 1254 1254" fill="none" xmlns="http://www.w3.org/2000/svg">
    <g clip-path="url(#clip0_103_81)">
        <path d="M0 0H1254V1254H0V0Z" fill="#FBFBFA"/>
        <path d="M370.049 175.37C376.415 174.259 391.9 174.917 399.034 174.904L454.914 174.937L629.682 174.915L799.198 174.893L850.038 174.864C869.473 174.88 885.815 174.314 905.103 177.902C938.914 184.325 970.38 199.72 996.207 222.476C1034.65 256.011 1058.03 303.573 1061.09 354.497C1061.96 369.283 1061.66 384.822 1061.65 399.689L1061.63 463.946V670.259L1061.64 808.946C1061.66 836.482 1063.1 880.096 1058.39 905.488C1051.91 939.82 1036.17 971.728 1012.88 997.769C979.406 1035.6 932.289 1058.61 881.872 1061.75C845.323 1062.88 803.729 1062.09 766.942 1062.05L554.88 1061.97L433.117 1061.98C408.954 1061.99 376.254 1063.46 353.352 1059.59C320.515 1054.19 289.68 1040.23 263.96 1019.11C224.014 986.123 199.094 941.235 193.739 889.299C192.355 875.871 192.757 861.568 192.777 848.005L192.794 795.616L192.817 613.652L192.786 438.744L192.776 387.984C192.781 369.792 192.444 352.36 195.519 334.335C201.09 301.164 215.384 270.072 236.936 244.248C271.314 203.187 316.799 180.089 370.049 175.37Z" fill="#EAEAEA"/>
        <path d="M374.764 177.206C386.198 175.845 405.109 176.872 416.986 176.878L486.183 176.895L698.989 176.886L817.102 176.908C844.423 176.917 879.325 175.375 905.311 180.522C940.249 187.586 972.573 204.116 998.755 228.306C1036.48 263.503 1058.25 311.633 1059.51 363.095C1059.82 375.779 1059.62 388.186 1059.64 400.856L1059.65 478.5L1059.71 705.546V822.172C1059.69 846.438 1061.01 880.188 1056.57 903.204C1049.7 939.441 1032.63 972.964 1007.36 999.838C971.146 1038.56 923.68 1058.22 871.04 1059.99C839.788 1061.08 802.768 1060.14 770.953 1060.19L557.413 1060.21H441.502C412.941 1060.22 377.721 1061.56 350.294 1056.51C318.499 1050.51 288.766 1036.49 263.919 1015.77C224.535 983.018 199.87 935.883 195.406 884.854C194.329 872.283 194.709 858.016 194.718 845.287L194.701 787.154L194.73 597.318L194.715 439.059L194.69 391.432C194.684 368.975 194.194 355.129 198.155 332.828C204.111 300.915 218.142 271.059 238.911 246.107C274.853 203.698 319.635 181.932 374.764 177.206Z" fill="#FBFBFA"/>
        <path d="M424.083 512.75C441.07 511.076 461.29 515.909 476.098 524.2C500.452 537.836 515.142 557.282 522.892 583.747C548.149 601.523 568.475 623.271 582.444 650.959C585.317 656.654 593.706 649.435 597.053 647.769C611.941 640.36 629.4 639.117 645.436 643.238C652.392 645.032 659.611 650.408 666.518 652.441C671.288 653.868 673.278 647.739 675.709 643.33C688.941 619.309 707.659 600.118 730.075 584.464C735.139 568.49 740.527 556.458 752.057 543.858C769.275 525.101 793.216 513.916 818.645 512.745C848.55 511.646 877.286 524.398 896.53 547.307C898.288 549.396 910.417 566.951 909.934 566.645C920.122 573.073 932.295 582.394 941.198 590.775C976.748 623.81 997.634 669.665 999.226 718.166C1000.39 764.383 983.141 809.161 951.27 842.641C919.32 876.232 876.845 894.246 830.701 895.404C792.224 894.914 760.415 885.742 728.404 863.521C692.559 838.643 665.826 798.739 658.221 755.535C657.695 754.996 657.162 754.463 656.629 753.931C642.228 739.713 619.254 737.65 602.596 749.087C600.18 750.747 597.612 753.514 595.529 755.615C592.513 780.719 576.631 811.273 560.763 830.848C531.169 867.085 488.344 890.022 441.781 894.571C397.521 898.973 351.955 884.278 317.689 856.124C282.425 827.015 260.101 785.146 255.583 739.646C250.671 686.387 269.612 633.692 307.303 595.752C313.644 589.163 320.53 583.122 327.889 577.693C331.497 575.027 340.852 569.057 343.378 566.168C347.434 561.529 350.862 554.01 355.399 548.657C373.885 526.848 395.857 515.292 424.083 512.75Z" fill="#002042"/>
        <path d="M419.898 599.19C487.47 596.258 544.64 648.627 547.632 716.195C550.624 783.769 498.306 840.982 430.74 844.038C363.088 847.093 305.783 794.692 302.787 727.038C299.791 659.385 352.241 602.125 419.898 599.19Z" fill="#FBFBFA"/>
        <path d="M418.032 632.78C427.205 632.076 436.936 635.505 435.226 646.888C433.202 660.358 419.369 656.072 409.733 658.136C401.272 659.966 393.264 663.475 386.184 668.453C372.443 677.993 363.008 692.559 359.921 709C358.147 718.331 360.72 726.898 352.368 732.727C348.254 734.264 344.018 734.643 340.282 731.839C337.216 729.537 335.471 724.859 335.391 721.075C334.948 700.146 343.605 679.058 357.059 663.23C373.471 644.445 393.548 634.55 418.032 632.78Z" fill="#76D1CB"/>
        <path d="M822.613 599.736C890.181 596.358 947.688 648.388 951.068 715.956C954.448 783.523 902.415 841.031 834.853 844.411C767.285 847.791 709.771 795.757 706.391 728.196C703.011 660.628 755.051 603.115 822.613 599.736Z" fill="#FBFBFA"/>
        <path d="M821.486 633.386C823.25 633.215 826.342 633.166 828.148 633.331C831.534 633.625 834.639 635.34 836.702 638.04C841.123 643.93 839.023 653.501 832.189 656.495C828.124 658.277 822.429 657.56 817.978 658.056C806.699 659.317 795.904 663.946 786.965 670.884C774.461 680.485 766.024 694.433 763.311 709.961C761.701 718.852 764.028 727.24 756.276 733.033C746.791 736.462 738.85 732.047 738.923 721.711C739.278 673.633 774.412 637.079 821.486 633.386Z" fill="#76D1CB"/>
        <path d="M623.363 300.812C639.326 299.764 647.531 309.406 659.22 318.64L691.353 343.96C731.539 375.66 771.896 407.138 812.424 438.392C812.62 417.817 812.461 396.986 812.381 376.4C794.655 376.575 794.508 367.805 794.71 352.533C794.784 346.736 798.115 338.639 804.795 338.158C823.819 336.932 843.199 337.731 862.272 337.579C874.218 337.485 888.099 336.347 888.381 352.324C888.675 369.101 888.742 375.763 869.907 376.439C869.075 410.899 869.436 448.113 869.693 482.656C897.682 505.009 906.995 504.515 915.438 542.961C883.458 506.895 847.503 485.308 797.796 495.473C767.481 472.41 737.307 449.168 707.267 425.748C689.039 412.015 670.988 397.61 652.815 383.812C648.737 380.72 630.6 366.104 626.939 364.677C620.308 366.519 606.689 378.126 600.588 382.87L567.26 408.724C529.898 437.927 492.384 466.934 454.719 495.744C404.727 484.062 369.855 507.046 337.869 542.961C346.577 509.779 351.181 507.807 376.636 488.238L401.738 468.643L504.53 388.439L574.57 333.56C586.58 324.127 598.697 314.472 610.855 305.217C614.35 302.559 619.095 301.536 623.363 300.812Z" fill="#76D1CB"/>
        <path d="M636.007 452.514C640.446 452.319 668.098 450.812 670.168 455.125C673.97 463.062 672.794 478.92 671.949 487.925C671.643 491.258 669.01 493.157 666.414 494.772C657.327 495.391 646.771 494.987 637.679 494.645C629.761 494.262 629.468 482.336 629.921 476.633C630.643 467.599 627.416 457.932 636.007 452.514Z" fill="#002042"/>
        <path d="M636.013 505.795C645.326 505.181 656.36 505.313 665.643 505.909C673.033 506.384 672.996 520.034 672.623 525.343C672.011 534.152 675.329 542.893 666.243 547.884C660.799 548.091 653.194 547.792 648.161 548.035C632.143 549.15 629.229 545.37 629.896 529.419C630.257 520.812 627.612 510.958 636.013 505.795Z" fill="#002042"/>
        <path d="M582.88 452.575C587.946 452.237 595.171 452.557 599.782 452.298C616.236 451.084 620.271 453.93 619.352 471.137C618.905 479.545 621.691 489.575 613.591 494.661C604.704 495.079 595.563 494.982 586.676 494.865C577.707 495.245 576.66 484.495 577.222 477.604C577.952 468.635 574.59 458.459 582.88 452.575Z" fill="#002042"/>
        <path d="M582.871 505.799C592.206 505.31 602.308 505.389 611.626 505.765C619.628 505.925 619.781 517.752 619.334 523.584C618.679 532.146 621.783 542.511 613.646 547.741C604.898 548.556 594.455 547.836 585.63 547.901C577.472 548.112 576.75 536.825 577.233 530.856C577.971 521.739 574.574 511.734 582.871 505.799Z" fill="#002042"/>
        <g clip-path="url(#clip1_103_81)">
            <path d="M336.639 1105.12H2110.64V1992.12H336.639V1105.12Z" fill="#FBFBFA"/>
        </g>
    </g>
    <defs>
        <clipPath id="clip0_103_81">
            <rect width="1254" height="1254" fill="white"/>
        </clipPath>
        <clipPath id="clip1_103_81">
            <rect width="1774" height="887" fill="white" transform="translate(336.639 1105.12)"/>
        </clipPath>
    </defs>
</svg>
